# 3ds Max Wavefront OBJ Exporter v0.97b - (c)2007 guruware
# File Created: 16.01.2020 10:53:35

mtllib 1.mtl

#
# object Box012
#

v  224.2802 2.7355 0.8160
v  226.5376 2.7355 0.8160
v  226.5376 20.8112 0.8160
v  224.2802 20.8112 0.8160
v  226.5376 2.7355 -1.0578
v  226.5376 20.8112 -1.0578
v  224.2802 2.7355 -1.0578
v  224.2802 20.8112 -1.0578
v  225.4089 22.2224 -0.1209
# 9 vertices

vn -0.7071 0.0000 0.7071
vn 0.7071 0.0000 0.7071
vn 0.6700 0.3389 0.6605
vn -0.6700 0.3389 0.6605
vn 0.7071 0.0000 -0.7071
vn 0.6700 0.3389 -0.6605
vn -0.7071 0.0000 -0.7071
vn -0.6700 0.3389 -0.6605
vn 0.0000 1.0000 -0.0000
# 9 vertex normals

vt 0.6258 0.0403 0.0000
vt 0.7539 0.0403 0.0000
vt 0.7539 0.8678 0.0000
vt 0.6258 0.8678 0.0000
vt 0.2415 0.0403 0.0000
vt 0.3696 0.0403 0.0000
vt 0.3696 0.8678 0.0000
vt 0.2415 0.8678 0.0000
vt 0.4977 0.0403 0.0000
vt 0.4977 0.8678 0.0000
vt 0.6899 0.9745 0.0000
vt 0.3056 0.9745 0.0000
vt 0.4337 0.9745 0.0000
vt 0.5618 0.9745 0.0000
# 14 texture coords

o Box012
g Box012
usemtl wire_008110135
s 8
f 1/1/1 2/2/2 3/3/3 4/4/4 
s 16
f 2/5/2 5/6/5 6/7/6 3/8/3 
s 32
f 5/6/5 7/9/7 8/10/8 6/7/6 
s 64
f 7/9/7 1/1/1 4/4/4 8/10/8 
s off
f 4/4/4 3/3/3 9/11/9 
f 3/8/3 6/7/6 9/12/9 
f 6/7/6 8/10/8 9/13/9 
f 8/10/8 4/4/4 9/14/9 
# 4 polygons - 4 triangles

