# 3ds Max Wavefront OBJ Exporter v0.97b - (c)2007 guruware
# File Created: 16.01.2020 10:53:56

mtllib 2.mtl

#
# object Box014
#

v  226.0200 17.6031 -1.2056
v  226.0200 17.6031 -2.8360
v  226.0200 15.9727 -2.8360
v  226.0200 15.9727 -1.2056
v  237.3896 17.6031 -1.2056
v  237.3896 15.9727 -1.2056
v  237.3896 15.9727 -2.8360
v  237.3896 17.6031 -2.8360
# 8 vertices

vn -0.5774 0.5774 0.5774
vn -0.5774 0.5774 -0.5774
vn -0.5774 -0.5774 -0.5774
vn -0.5774 -0.5774 0.5774
vn 0.5774 0.5774 0.5774
vn 0.5774 -0.5774 0.5774
vn 0.5774 -0.5774 -0.5774
vn 0.5774 0.5774 -0.5774
# 8 vertex normals

vt 0.5007 0.5822 0.0000
vt 0.5007 0.3470 0.0000
vt 0.7359 0.3470 0.0000
vt 0.7359 0.5822 0.0000
vt 0.2620 0.5822 0.0000
vt 0.0268 0.5822 0.0000
vt 0.0268 0.3470 0.0000
vt 0.2620 0.3470 0.0000
vt 0.7324 0.8174 0.0000
vt 0.4972 0.8174 0.0000
vt 0.9676 0.3470 0.0000
vt 0.9676 0.5822 0.0000
vt 0.4972 0.1118 0.0000
vt 0.7324 0.1118 0.0000
# 14 texture coords

o Box014
g Box014
usemtl wire_214228153
s 2
f 1/1/1 2/2/2 3/3/3 4/4/4 
s 4
f 5/5/5 6/6/6 7/7/7 8/8/8 
s 8
f 1/1/1 4/4/4 6/9/6 5/10/5 
s 16
f 4/4/4 3/3/3 7/11/7 6/12/6 
s 32
f 3/3/3 2/2/2 8/13/8 7/14/7 
s 64
f 2/2/2 1/1/1 5/5/5 8/8/8 
# 6 polygons

