# 3ds Max Wavefront OBJ Exporter v0.97b - (c)2007 guruware
# File Created: 29.01.2020 19:17:59

mtllib street lamp.mtl

#
# object Cylinder003
#

v  2.2814 17.3087 0.0000
v  1.1407 17.3087 -1.9758
v  0.7917 39.9912 -1.3713
v  1.5834 39.9912 -0.0000
v  -1.1407 17.3087 -1.9758
v  -0.7917 39.9912 -1.3713
v  -2.2814 17.3087 0.0000
v  -1.5834 39.9912 0.0000
v  -1.1407 17.3087 1.9758
v  -0.7917 39.9912 1.3713
v  1.1407 17.3087 1.9758
v  0.7917 39.9912 1.3713
v  3.1395 16.6628 0.0000
v  1.5698 16.6628 -2.7189
v  -1.5698 16.6628 -2.7189
v  -3.1395 16.6628 0.0000
v  -1.5698 16.6628 2.7189
v  1.5698 16.6628 2.7189
v  3.1395 14.6991 0.0000
v  1.5698 14.6991 -2.7189
v  -1.5698 14.6991 -2.7189
v  -3.1395 14.6991 0.0000
v  -1.5698 14.6991 2.7189
v  1.5698 14.6991 2.7189
v  2.8582 13.9090 0.0000
v  1.4293 13.9090 -2.4751
v  -1.4287 13.9090 -2.4751
v  -2.8577 13.9090 0.0000
v  -1.4287 13.9090 2.4751
v  1.4293 13.9090 2.4751
v  3.3519 3.2221 0.0000
v  1.6761 3.2221 -2.9026
v  -1.6755 3.2221 -2.9026
v  -3.3513 3.2221 0.0000
v  -1.6755 3.2221 2.9026
v  1.6761 3.2221 2.9026
v  3.9680 2.7449 0.0000
v  1.9842 2.7449 -3.4362
v  -1.9836 2.7449 -3.4362
v  -3.9674 2.7449 0.0000
v  -1.9836 2.7449 3.4362
v  1.9842 2.7449 3.4362
v  3.9680 1.6017 0.0000
v  1.9842 1.6017 -3.4362
v  -1.9836 1.6017 -3.4362
v  -3.9674 1.6017 0.0000
v  -1.9836 1.6017 3.4362
v  1.9842 1.6017 3.4362
v  1.2822 40.5129 -2.2208
v  2.5644 40.5129 -0.0000
v  -1.2822 40.5129 -2.2208
v  -2.5643 40.5129 0.0000
v  -1.2822 40.5129 2.2208
v  1.2822 40.5129 2.2208
v  1.2822 41.2496 -2.2208
v  2.5644 41.2496 0.0000
v  -1.2822 41.2496 -2.2208
v  -2.5643 41.2496 0.0000
v  -1.2822 41.2496 2.2208
v  1.2822 41.2496 2.2208
v  1.1691 41.4629 -2.0249
v  2.3381 41.4629 0.0000
v  -1.1691 41.4629 -2.0249
v  -2.3381 41.4629 0.0000
v  -1.1691 41.4629 2.0249
v  1.1691 41.4629 2.0249
v  1.4405 46.7215 -2.4951
v  2.8811 46.7215 0.0000
v  -1.4405 46.7215 -2.4951
v  -2.8811 46.7215 0.0000
v  -1.4405 46.7215 2.4951
v  1.4405 46.7215 2.4951
v  1.8308 47.1453 -3.1710
v  3.6615 47.1453 0.0000
v  -1.8308 47.1453 -3.1710
v  -3.6615 47.1453 0.0000
v  -1.8308 47.1453 3.1710
v  1.8308 47.1453 3.1710
v  1.8308 48.4507 -3.1710
v  3.6615 48.4507 0.0000
v  -1.8308 48.4507 -3.1710
v  -3.6615 48.4507 0.0000
v  -1.8308 48.4507 3.1710
v  1.8308 48.4507 3.1710
v  1.1117 49.7076 -1.9255
v  2.2234 49.7076 0.0000
v  -1.1117 49.7076 -1.9255
v  -2.2234 49.7076 0.0000
v  -1.1117 49.7076 1.9255
v  1.1117 49.7076 1.9255
# 90 vertices

vn 0.8492 0.5280 -0.0000
vn 0.4246 0.5280 -0.7355
vn 0.4028 -0.5925 -0.6977
vn 0.8056 -0.5925 0.0000
vn -0.4246 0.5280 -0.7355
vn -0.4028 -0.5925 -0.6977
vn -0.8492 0.5280 0.0000
vn -0.8056 -0.5925 0.0000
vn -0.4246 0.5280 0.7355
vn -0.4028 -0.5925 0.6977
vn 0.4246 0.5280 0.7355
vn 0.4028 -0.5925 0.6977
vn 0.9175 0.3978 -0.0000
vn 0.4587 0.3978 -0.7946
vn -0.4587 0.3978 -0.7946
vn -0.9175 0.3978 0.0000
vn -0.4587 0.3978 0.7946
vn 0.4587 0.3978 0.7946
vn 0.9868 -0.1617 -0.0000
vn 0.4934 -0.1618 -0.8546
vn -0.4934 -0.1620 -0.8546
vn -0.9868 -0.1620 0.0000
vn -0.4934 -0.1620 0.8546
vn 0.4934 -0.1618 0.8546
vn 0.9876 -0.1572 0.0000
vn 0.4938 -0.1573 -0.8552
vn -0.4937 -0.1575 -0.8552
vn -0.9875 -0.1576 -0.0000
vn -0.4937 -0.1575 0.8552
vn 0.4938 -0.1573 0.8552
vn 0.8503 0.5264 0.0000
vn 0.4251 0.5264 -0.7363
vn -0.4251 0.5264 -0.7363
vn -0.8503 0.5264 0.0000
vn -0.4251 0.5264 0.7363
vn 0.4251 0.5264 0.7363
vn 0.9197 0.3927 0.0000
vn 0.4598 0.3927 -0.7964
vn -0.4598 0.3927 -0.7964
vn -0.9196 0.3928 -0.0000
vn -0.4599 0.3927 0.7964
vn 0.4598 0.3927 0.7964
vn 1.0000 0.0000 0.0000
vn 0.5000 0.0000 -0.8660
vn -0.5000 0.0000 -0.8660
vn -1.0000 -0.0000 0.0001
vn -0.4999 0.0000 0.8661
vn 0.5000 0.0000 0.8660
vn 0.4456 -0.4535 -0.7719
vn 0.8913 -0.4535 -0.0001
vn -0.4456 -0.4535 -0.7719
vn -0.8913 -0.4535 0.0000
vn -0.4456 -0.4535 0.7719
vn 0.4456 -0.4535 0.7719
vn 0.4671 0.3566 -0.8091
vn 0.9343 0.3565 0.0001
vn -0.4671 0.3565 -0.8091
vn -0.9343 0.3565 0.0000
vn -0.4671 0.3565 0.8091
vn 0.4671 0.3566 0.8091
vn 0.4571 0.4054 -0.7917
vn 0.9141 0.4054 -0.0000
vn -0.4571 0.4054 -0.7917
vn -0.9141 0.4054 0.0000
vn -0.4571 0.4054 0.7917
vn 0.4571 0.4054 0.7917
vn 0.3856 -0.6367 -0.6678
vn 0.7711 -0.6367 0.0000
vn -0.3856 -0.6367 -0.6678
vn -0.7711 -0.6367 0.0000
vn -0.3856 -0.6367 0.6678
vn 0.3856 -0.6367 0.6678
vn 0.4464 -0.4505 -0.7732
vn 0.8928 -0.4505 -0.0000
vn -0.4464 -0.4505 -0.7732
vn -0.8928 -0.4505 0.0000
vn -0.4464 -0.4505 0.7732
vn 0.4464 -0.4505 0.7732
vn 0.4644 0.3707 -0.8043
vn 0.9288 0.3707 0.0000
vn -0.4644 0.3707 -0.8043
vn -0.9287 0.3707 0.0000
vn -0.4644 0.3707 0.8043
vn 0.4643 0.3708 0.8043
vn 0.2223 0.8957 -0.3851
vn 0.4447 0.8957 -0.0000
vn -0.2223 0.8957 -0.3851
vn -0.4447 0.8957 0.0000
vn -0.2223 0.8957 0.3851
vn 0.2223 0.8957 0.3851
# 90 vertex normals

vt 0.6392 0.3553 0.0000
vt 0.6349 0.4166 0.0000
vt 0.0261 0.3642 0.0000
vt 0.0291 0.3217 0.0000
vt 0.6325 0.0485 0.0000
vt 0.6376 0.1097 0.0000
vt 0.0280 0.1512 0.0000
vt 0.0244 0.1088 0.0000
vt 0.6409 0.1711 0.0000
vt 0.0302 0.1938 0.0000
vt 0.6422 0.2325 0.0000
vt 0.0311 0.2365 0.0000
vt 0.6417 0.2939 0.0000
vt 0.0308 0.2791 0.0000
vt 0.8996 0.6480 0.0000
vt 0.8633 0.6084 0.0000
vt 0.8769 0.5918 0.0000
vt 0.9235 0.6397 0.0000
vt 0.6414 0.5672 0.0000
vt 0.5763 0.5911 0.0000
vt 0.5533 0.5638 0.0000
vt 0.6368 0.5394 0.0000
vt 0.7040 0.5614 0.0000
vt 0.7054 0.5356 0.0000
vt 0.7632 0.5674 0.0000
vt 0.7692 0.5438 0.0000
vt 0.8169 0.5834 0.0000
vt 0.8267 0.5627 0.0000
vt 0.8984 0.5569 0.0000
vt 0.9586 0.6003 0.0000
vt 0.5441 0.5032 0.0000
vt 0.6285 0.4934 0.0000
vt 0.7048 0.4906 0.0000
vt 0.7769 0.5015 0.0000
vt 0.8413 0.5246 0.0000
vt 0.9084 0.5411 0.0000
vt 0.9678 0.5805 0.0000
vt 0.5457 0.4794 0.0000
vt 0.6268 0.4714 0.0000
vt 0.7060 0.4677 0.0000
vt 0.7821 0.4813 0.0000
vt 0.8495 0.5068 0.0000
vt 0.6879 0.4469 0.0000
vt 0.6966 0.3800 0.0000
vt 0.9479 0.4068 0.0000
vt 0.9376 0.4853 0.0000
vt 0.7003 0.1103 0.0000
vt 0.6935 0.0432 0.0000
vt 0.9443 0.0118 0.0000
vt 0.9523 0.0905 0.0000
vt 0.7041 0.1777 0.0000
vt 0.9566 0.1696 0.0000
vt 0.7047 0.2452 0.0000
vt 0.9574 0.2487 0.0000
vt 0.7022 0.3127 0.0000
vt 0.9544 0.3279 0.0000
vt 0.8994 0.9459 0.0000
vt 0.9164 0.8639 0.0000
vt 0.9334 0.8637 0.0000
vt 0.9154 0.9570 0.0000
vt 0.7043 0.6767 0.0000
vt 0.6229 0.7013 0.0000
vt 0.6092 0.6841 0.0000
vt 0.7031 0.6583 0.0000
vt 0.7830 0.6862 0.0000
vt 0.7889 0.6694 0.0000
vt 0.8511 0.7254 0.0000
vt 0.8630 0.7124 0.0000
vt 0.8981 0.7880 0.0000
vt 0.9141 0.7809 0.0000
vt 0.9624 0.8618 0.0000
vt 0.9471 0.9628 0.0000
vt 0.6021 0.6557 0.0000
vt 0.7005 0.6310 0.0000
vt 0.7968 0.6423 0.0000
vt 0.8810 0.6905 0.0000
vt 0.9392 0.7679 0.0000
vt 0.6522 0.7493 0.0000
vt 0.6999 0.7302 0.0000
vt 0.7257 0.7601 0.0000
vt 0.6575 0.7790 0.0000
vt 0.4360 0.7124 0.0000
vt 0.4720 0.7382 0.0000
vt 0.4598 0.7594 0.0000
vt 0.4086 0.7272 0.0000
vt 0.5136 0.7515 0.0000
vt 0.5055 0.7764 0.0000
vt 0.5583 0.7580 0.0000
vt 0.5540 0.7850 0.0000
vt 0.6048 0.7575 0.0000
vt 0.6048 0.7858 0.0000
vt 0.7299 0.7844 0.0000
vt 0.6615 0.7961 0.0000
vt 0.4535 0.7743 0.0000
vt 0.3973 0.7462 0.0000
vt 0.5021 0.7922 0.0000
vt 0.5532 0.8015 0.0000
vt 0.6065 0.8027 0.0000
vt 0.7280 0.7930 0.0000
vt 0.6625 0.8032 0.0000
vt 0.4506 0.7808 0.0000
vt 0.3965 0.7551 0.0000
vt 0.5003 0.7986 0.0000
vt 0.5524 0.8082 0.0000
vt 0.6068 0.8096 0.0000
vt 0.0787 0.5327 0.0000
vt 0.0654 0.4635 0.0000
vt 0.2202 0.4254 0.0000
vt 0.2366 0.5108 0.0000
vt 0.0374 0.8792 0.0000
vt 0.0599 0.8123 0.0000
vt 0.2134 0.8553 0.0000
vt 0.1857 0.9376 0.0000
vt 0.0753 0.7435 0.0000
vt 0.2325 0.7705 0.0000
vt 0.0837 0.6735 0.0000
vt 0.2428 0.6842 0.0000
vt 0.0848 0.6030 0.0000
vt 0.2441 0.5973 0.0000
vt 0.6576 0.8582 0.0000
vt 0.7376 0.8546 0.0000
vt 0.7496 0.8796 0.0000
vt 0.6565 0.8789 0.0000
vt 0.2949 0.8458 0.0000
vt 0.3775 0.8586 0.0000
vt 0.3756 0.8779 0.0000
vt 0.2802 0.8670 0.0000
vt 0.4487 0.8582 0.0000
vt 0.4482 0.8774 0.0000
vt 0.5186 0.8572 0.0000
vt 0.5179 0.8761 0.0000
vt 0.5875 0.8571 0.0000
vt 0.5865 0.8761 0.0000
vt 0.7448 0.9201 0.0000
vt 0.6562 0.9065 0.0000
vt 0.3773 0.9076 0.0000
vt 0.2756 0.9117 0.0000
vt 0.4504 0.9051 0.0000
vt 0.5198 0.9031 0.0000
vt 0.5875 0.9029 0.0000
vt 0.7118 0.9656 0.0000
vt 0.6483 0.9501 0.0000
vt 0.3792 0.9620 0.0000
vt 0.3046 0.9757 0.0000
vt 0.4497 0.9556 0.0000
vt 0.5178 0.9515 0.0000
vt 0.5840 0.9492 0.0000
vt 0.4633 0.6441 0.0000
vt 0.3698 0.6441 0.0000
vt 0.3230 0.5632 0.0000
vt 0.5100 0.5632 0.0000
vt 0.3698 0.4822 0.0000
vt 0.4633 0.4822 0.0000
# 153 texture coords

o Cylinder003
g Cylinder003
usemtl wire_006135113
s off
f 1/1/1 2/2/2 3/3/3 4/4/4 
f 2/5/2 5/6/5 6/7/6 3/8/3 
f 5/6/5 7/9/7 8/10/8 6/7/6 
f 7/9/7 9/11/9 10/12/10 8/10/8 
f 9/11/9 11/13/11 12/14/12 10/12/10 
f 11/13/11 1/1/1 4/4/4 12/14/12 
f 2/15/2 1/16/1 13/17/13 14/18/14 
f 5/19/5 2/20/2 14/21/14 15/22/15 
f 7/23/7 5/19/5 15/22/15 16/24/16 
f 9/25/9 7/23/7 16/24/16 17/26/17 
f 11/27/11 9/25/9 17/26/17 18/28/18 
f 1/16/1 11/27/11 18/28/18 13/17/13 
f 14/18/14 13/17/13 19/29/19 20/30/20 
f 15/22/15 14/21/14 20/31/20 21/32/21 
f 16/24/16 15/22/15 21/32/21 22/33/22 
f 17/26/17 16/24/16 22/33/22 23/34/23 
f 18/28/18 17/26/17 23/34/23 24/35/24 
f 13/17/13 18/28/18 24/35/24 19/29/19 
f 20/30/20 19/29/19 25/36/25 26/37/26 
f 21/32/21 20/31/20 26/38/26 27/39/27 
f 22/33/22 21/32/21 27/39/27 28/40/28 
f 23/34/23 22/33/22 28/40/28 29/41/29 
f 24/35/24 23/34/23 29/41/29 30/42/30 
f 19/29/19 24/35/24 30/42/30 25/36/25 
f 26/43/26 25/44/25 31/45/31 32/46/32 
f 27/47/27 26/48/26 32/49/32 33/50/33 
f 28/51/28 27/47/27 33/50/33 34/52/34 
f 29/53/29 28/51/28 34/52/34 35/54/35 
f 30/55/30 29/53/29 35/54/35 36/56/36 
f 25/44/25 30/55/30 36/56/36 31/45/31 
f 32/57/32 31/58/31 37/59/37 38/60/38 
f 33/61/33 32/62/32 38/63/38 39/64/39 
f 34/65/34 33/61/33 39/64/39 40/66/40 
f 35/67/35 34/65/34 40/66/40 41/68/41 
f 36/69/36 35/67/35 41/68/41 42/70/42 
f 31/58/31 36/69/36 42/70/42 37/59/37 
f 38/60/38 37/59/37 43/71/43 44/72/44 
f 39/64/39 38/63/38 44/73/44 45/74/45 
f 40/66/40 39/64/39 45/74/45 46/75/46 
f 41/68/41 40/66/40 46/75/46 47/76/47 
f 42/70/42 41/68/41 47/76/47 48/77/48 
f 37/59/37 42/70/42 48/77/48 43/71/43 
f 4/78/4 3/79/3 49/80/49 50/81/50 
f 3/82/3 6/83/6 51/84/51 49/85/49 
f 6/83/6 8/86/8 52/87/52 51/84/51 
f 8/86/8 10/88/10 53/89/53 52/87/52 
f 10/88/10 12/90/12 54/91/54 53/89/53 
f 12/90/12 4/78/4 50/81/50 54/91/54 
f 50/81/50 49/80/49 55/92/55 56/93/56 
f 49/85/49 51/84/51 57/94/57 55/95/55 
f 51/84/51 52/87/52 58/96/58 57/94/57 
f 52/87/52 53/89/53 59/97/59 58/96/58 
f 53/89/53 54/91/54 60/98/60 59/97/59 
f 54/91/54 50/81/50 56/93/56 60/98/60 
f 56/93/56 55/92/55 61/99/61 62/100/62 
f 55/95/55 57/94/57 63/101/63 61/102/61 
f 57/94/57 58/96/58 64/103/64 63/101/63 
f 58/96/58 59/97/59 65/104/65 64/103/64 
f 59/97/59 60/98/60 66/105/66 65/104/65 
f 60/98/60 56/93/56 62/100/62 66/105/66 
f 62/106/62 61/107/61 67/108/67 68/109/68 
f 61/110/61 63/111/63 69/112/69 67/113/67 
f 63/111/63 64/114/64 70/115/70 69/112/69 
f 64/114/64 65/116/65 71/117/71 70/115/70 
f 65/116/65 66/118/66 72/119/72 71/117/71 
f 66/118/66 62/106/62 68/109/68 72/119/72 
f 68/120/68 67/121/67 73/122/73 74/123/74 
f 67/124/67 69/125/69 75/126/75 73/127/73 
f 69/125/69 70/128/70 76/129/76 75/126/75 
f 70/128/70 71/130/71 77/131/77 76/129/76 
f 71/130/71 72/132/72 78/133/78 77/131/77 
f 72/132/72 68/120/68 74/123/74 78/133/78 
f 74/123/74 73/122/73 79/134/79 80/135/80 
f 73/127/73 75/126/75 81/136/81 79/137/79 
f 75/126/75 76/129/76 82/138/82 81/136/81 
f 76/129/76 77/131/77 83/139/83 82/138/82 
f 77/131/77 78/133/78 84/140/84 83/139/83 
f 78/133/78 74/123/74 80/135/80 84/140/84 
f 80/135/80 79/134/79 85/141/85 86/142/86 
f 79/137/79 81/136/81 87/143/87 85/144/85 
f 81/136/81 82/138/82 88/145/88 87/143/87 
f 82/138/82 83/139/83 89/146/89 88/145/88 
f 83/139/83 84/140/84 90/147/90 89/146/89 
f 84/140/84 80/135/80 86/142/86 90/147/90 
f 85/148/85 87/149/87 88/150/88 86/151/86 
f 88/150/88 89/152/89 90/153/90 86/151/86 
# 86 polygons

